<?xml version="1.0" encoding="UTF-8" standalone="no"?>
<svg
   xmlns:dc="http://purl.org/dc/elements/1.1/"
   xmlns:cc="http://creativecommons.org/ns#"
   xmlns:rdf="http://www.w3.org/1999/02/22-rdf-syntax-ns#"
   xmlns:svg="http://www.w3.org/2000/svg"
   xmlns="http://www.w3.org/2000/svg"
   xmlns:sodipodi="http://sodipodi.sourceforge.net/DTD/sodipodi-0.dtd"
   xmlns:inkscape="http://www.inkscape.org/namespaces/inkscape"
   inkscape:version="1.0 (4035a4fb49, 2020-05-01)"
   sodipodi:docname="brera-alfa-romeo-seeklogo.com.svg"
   viewBox="0 0 499.99992 117.32823"
   height="117.32823"
   width="499.99994"
   xml:space="preserve"
   id="svg2"
   version="1.1"><metadata
     id="metadata8"><rdf:RDF><cc:Work
         rdf:about=""><dc:format>image/svg+xml</dc:format><dc:type
           rdf:resource="http://purl.org/dc/dcmitype/StillImage" /><dc:title></dc:title></cc:Work></rdf:RDF></metadata><defs
     id="defs6"><clipPath
       id="clipPath18"
       clipPathUnits="userSpaceOnUse"><path
         id="path16"
         d="M 0,595 H 842 V 0 H 0 Z" /></clipPath></defs><sodipodi:namedview
     showguides="false"
     fit-margin-bottom="0"
     fit-margin-right="0"
     fit-margin-left="0"
     fit-margin-top="0"
     inkscape:current-layer="g10"
     inkscape:window-maximized="1"
     inkscape:window-y="-11"
     inkscape:window-x="-11"
     inkscape:cy="366.10021"
     inkscape:cx="432.10882"
     inkscape:zoom="0.69951116"
     showgrid="false"
     inkscape:document-rotation="0"
     id="namedview4"
     inkscape:window-height="986"
     inkscape:window-width="1920"
     inkscape:pageshadow="2"
     inkscape:pageopacity="0"
     guidetolerance="10"
     gridtolerance="10"
     objecttolerance="10"
     borderopacity="1"
     bordercolor="#666666"
     pagecolor="#ffffff" /><g
     transform="matrix(1.3333333,0,0,-1.3333333,-79.42946,641.66573)"
     inkscape:label="brera-alfa-romeo-seeklogo.com"
     inkscape:groupmode="layer"
     id="g10"><path
       d="m 161.79169,481.24844 c -26.73638,-0.10347 -55.51284,-9.36399 -74.159697,-29.09479 -5.710568,-6.04277 -8.87185,-13.90337 -4.708856,-19.87187 2.634489,-3.7766 6.530767,-5.31931 11.040008,-5.28368 7.351985,0.0582 13.403425,4.95222 19.430095,9.31259 0.71989,0.52086 1.23771,1.15706 1.06218,1.66494 -2.30475,6.66829 -11.60752,-4.18281 -20.92817,-4.16344 -3.313499,0.007 -4.953687,0.98924 -5.177095,4.36558 -0.791841,11.96701 25.310945,27.48224 48.193365,33.02521 15.45166,3.74248 30.99363,3.63499 45.89481,-2.47351 2.41067,-1.44019 2.12475,-1.97121 0.18376,-3.72754 -2.78202,-1.72521 -12.54314,-8.32348 -15.8922,-10.67395 -2.07347,-1.33782 -3.81981,-2.86017 -6.28117,-3.32986 -6.00062,0 -16.35042,-0.68951 -12.48148,-9.36626 0.17363,-1.91991 -1.16411,-2.49152 -2.51247,-3.61507 -6.00061,-4.2759 -11.91596,-8.62458 -17.78721,-12.90635 -14.2994,-10.42821 -30.876761,-19.83614 -48.746141,-11.88314 -3.158086,1.40555 -3.614406,3.0232 -6.946407,0.99088 -3.666708,-2.82919 -7.087685,-5.9854 -10.897407,-8.6209 -9.807326,-8.79267 31.078736,-8.56166 42.453205,-4.17887 2.46036,0.94841 4.84426,2.03145 7.16914,3.22475 14.9925,7.69321 27.51818,19.97898 42.1283,30.42159 1.53252,0.78633 2.39921,0.25244 4.0642,-0.0742 6.11804,-4.27691 11.88996,-2.02412 18.49876,-2.71461 7.65357,-13.62859 -3.18768,-24.42808 -15.46439,-30.33485 -9.0521,-3.35258 -16.8581,-4.19204 -26.39194,-2.55364 -4.76903,1.27786 -4.38552,3.85111 -3.79957,8.55915 0.17051,1.37003 -1.12114,1.62837 -2.05305,0.99162 -2.76723,-1.89078 -5.30815,-4.13202 -8.01741,-5.95554 -0.22137,-0.149 -0.24473,-0.50225 -0.0515,-0.67333 2.75211,-2.43583 5.92579,-4.45119 9.05018,-5.85703 14.63772,-6.51898 37.56427,-2.04107 51.61437,4.21195 3.24921,1.39553 5.27338,2.15025 8.26366,3.13581 14.53936,4.79225 24.51319,13.35104 37.34741,22.54164 2.2782,0.0647 8.06945,1.1859 6.41349,-2.86971 -5.85359,-5.17113 -19.29698,-13.84328 -19.50875,-18.50758 0,-11.20336 32.12676,-0.30953 40.62141,3.93262 0.17803,0.0889 0.42073,0.0438 0.42855,-0.0618 0.12344,-1.66492 0.52913,-3.26471 1.7061,-4.69856 6.37959,-7.77198 19.82522,-4.13435 31.17209,0.71963 12.18338,5.21177 22.70204,12.3245 33.35893,19.99463 2.02278,1.0829 4.43272,2.15511 6.66928,1.04159 1.54256,-3.19651 -1.84789,-5.25999 -3.97305,-7.16987 -4.13941,-3.21507 -15.78492,-9.3826 -14.29857,-16.09728 3.77259,-6.38099 18.63604,-2.2822 23.80817,-0.82696 2.8879,0.19872 14.76182,5.23745 16.25018,4.99406 0.51084,-1.18476 0.72507,-2.3693 1.26653,-3.57464 3.78613,-6.09545 12.1254,-4.73046 17.31309,-1.62377 1.45928,0.86696 2.52068,1.57062 3.82971,2.5529 0.13298,-0.0111 0.24052,-0.0427 0.32637,-0.26536 2.03985,-5.51737 8.99803,-6.22959 15.17478,-6.19296 8.03193,0.0462 15.95564,0.90961 23.73466,3.03878 10.27651,2.81313 20.14561,8.02549 23.88609,17.81073 0.95192,3.4971 0.87864,7.43576 -3.11524,9.29496 -3.94681,1.05755 -7.60901,-3.12327 -10.2858,-6.45465 -0.1321,-0.16442 -0.2764,-0.50903 -0.009,-0.57262 2.01042,-0.47782 4.8309,-0.62168 4.8309,-3.04319 -1.15917,-13.09717 -34.70706,-18.89232 -34.70706,-10.69379 0.16359,0.35729 0.33775,0.70463 0.51088,1.05189 7.54818,8.2763 27.14561,23.1141 25.18717,24.53294 -0.53819,0.38992 -13.34789,0.19711 -13.61497,0 -0.72145,-0.53242 -1.43011,-1.08232 -2.13465,-1.62377 -1.94049,-0.90877 -2.81626,0.0316 -4.25899,0.99088 -13.86735,9.22108 -42.47882,-7.99971 -45.38981,-18.01729 -4.55641,-2.09204 -11.76994,-6.23601 -16.95511,-4.96393 -2.17986,1.62786 2.58747,5.42917 4.68754,7.30292 2.74288,2.33542 17.86513,10.59639 13.82959,16.40381 -2.43075,1.69561 -5.4028,0.93998 -8.16074,0.62334 -4.60609,-0.89924 -9.36691,-2.19663 -14.0854,-1.73697 -2.03283,1.20585 -0.81684,2.93109 -0.24478,4.92276 0,3.00282 -2.29888,2.32943 -4.64784,2.30886 -4.39183,-0.67393 -11.34739,-3.8915 -12.01178,-8.83481 -0.14251,-0.14301 -0.32668,-3.00314 -0.42854,-3.25856 -6.86072,-8.31595 -19.56897,-15.3895 -30.06729,-17.95775 -2.91549,-0.71357 -11.11203,-2.2507 -11.58322,2.52349 -0.0848,0.86011 -0.0503,1.79542 0.15216,3.09612 10.57207,1.63639 22.68774,5.43269 30.2018,13.53336 3.95425,7.65307 -5.2536,7.622 -10.05208,6.81483 -9.62862,-1.61965 -18.93245,-4.94407 -26.9403,-10.7254 -3.70886,-2.67764 -6.98869,-5.91852 -9.45005,-9.77642 -3.88349,-1.86723 -12.80795,-6.92666 -16.52583,-5.23958 -3.53524,2.29928 9.00777,10.26104 10.78567,11.70525 3.96277,1.98013 16.64631,13.75863 2.86016,13.44148 -4.50623,-0.4436 -14.35001,-3.90377 -18.32382,-2.16551 2.4157,2.9165 1.84075,9.31961 -7.8035,6.74132 -5.21378,-2.1648 -7.71239,-4.98299 -8.62016,-10.74525 -2.26064,-6.13559 -15.40057,-13.11228 -21.0715,-15.60626 -3.00282,-0.23484 -2.65596,1.7875 -2.48233,4.11639 3.01235,12.41171 -11.69686,15.70427 0.96073,21.66324 8.05301,4.58702 14.65649,9.50659 15.41221,16.78531 0.62174,5.99409 -2.13873,9.26477 -5.14255,13.74139 -0.56805,0.84655 -1.00976,1.71476 -1.11804,2.59627 -0.0253,0.20612 0.0485,0.36899 0.19406,0.51087 1.62896,1.58828 3.64863,2.76275 5.48509,4.16784 0.27971,0.21401 0.27732,0.66773 0,0.85783 -3.2331,2.21632 -7.43949,-0.78059 -10.57177,-2.27798 -0.59214,0 -0.76648,0.12318 -1.27682,0.42928 -10.66688,4.1648 -23.23749,6.29788 -36.29479,6.24736 z m 28.38324,-17.43953 c 0.22523,0.0162 0.46424,-0.0313 0.67994,-0.15584 11.80251,-7.95414 1.90835,-22.55736 -9.7948,-22.83787 -2.02529,-0.25191 -11.15771,4.43895 -10.39095,8.50108 3.96228,4.72351 13.94656,10.4066 18.90894,14.26549 0.16019,0.13088 0.37164,0.2109 0.59687,0.22714 z m -26.84695,-19.94023 c 0.55129,0.0288 1.57371,-0.80129 5.60785,-4.02377 0.25639,-0.2048 0.38698,-0.49454 0.14334,-0.73507 -1.42698,-1.40874 -4.06791,-1.45377 -6.6171,-0.99161 -4.07317,1.36994 -3.26155,5.53482 0.86591,5.75045 z m 130.29844,-12.91003 c 6.78444,-2.47391 -14.43096,-13.35431 -18.1599,-13.26801 -1.5832,0.78634 -0.1013,2.47233 0.57262,3.42175 4.75965,4.46358 10.85653,9.23356 17.58728,9.84626 z m 93.90881,-2.17066 c 1.01431,0.0181 1.94735,-0.08 2.76607,-0.31093 3.03393,-0.42905 1.13438,-4.38235 -0.34696,-5.46524 -5.01957,-5.30763 -15.80446,-18.06867 -24.05368,-12.1338 -5.5381,6.71003 11.82959,17.73531 21.63457,17.90997 z"
       style="fill:#232323;fill-opacity:1;fill-rule:evenodd;stroke:none;stroke-width:0.501806"
       id="path22" /></g></svg>
